<?xml version="1.0" encoding="UTF-8" standalone="no"?>
<svg xmlns="http://www.w3.org/2000/svg" xml:space="preserve" width="248.87" height="254.6" viewBox="0 0 248.87321 254.60156">
  <g transform="matrix(4.38 0 0 -4.38 -1836.92 2180.02)">
    <path fill="#fff" d="M420.074688 498.042496v-44.3936h56.428v44.3936h-56.428zm.0015624-44.3952v-13.34184h56.42688v13.3424h-1.32496v-12.0184h-53.78v12.0184h-1.32184z"/>
    <path fill="#20bbed" d="M421.39968 496.71752v-18.7576c6.02272 8.344 15.8296 13.7872 26.8856 13.7872 11.0576 0 20.8656-5.44528 26.8936-13.7952v18.7656h-53.78zm26.8856-6.29528c-11.196 0-21.0808-5.72176-26.8856-14.3936v-21.0544h53.78v21.0472c-5.8056 8.6752-15.6944 14.4008-26.8944 14.4008zm-26.8872-36.7752v-12.0184h53.78v12.0184h-53.78z"/>
    <path fill="#fff" d="M463.4184 482.6768c-.263 0-.495184-.158128-.592192-.403128 0 0-2.32832-5.97112-2.59528-6.65312-.731-.04-7.0984-.375-7.0984-.375-.337-.018-.60156-.299376-.60156-.634376 0-.01.0016-.022376.0016-.034376.018-.349.317312-.617.670312-.6l7.50472.396872c.247.012.468376.171128.559376.403128 0 0 1.4216 3.65176 2.1516 5.51872.725-1.864 2.14064-5.49688 2.14064-5.49688.09-.232.307128-.388128.553128-.403128 0 0 3.87528-.220936 5.85624-.335936-1.528-1.268-4.52344-3.75936-4.52344-3.75936-.149-.122-.231248-.300496-.231248-.487504 0-.054.00576-.105816.018752-.157816 0 0 .9628-3.75896 1.45784-5.68592-1.668 1.07504-4.91872 3.17184-4.91872 3.17184-.207.135-.476936.135688-.685936.00472 0 0-3.28552-2.094-4.98752-3.17504.519 1.872 1.4516 5.24216 1.4516 5.24216.012.055.021872.113752.021872.168752 0 .279-.184184.531936-.467184.610936-.337.093-.689248-.104752-.781248-.443752l-1.88752-6.8328c-.07-.251.021816-.522128.232816-.678128.212-.156.498312-.164.720312-.025 0 0 5.41992 3.45016 6.03592 3.84216.61-.395 5.93904-3.83128 5.93904-3.83128.221-.142.501624-.134816.715624.017184.167.122.265624.313064.265624.514064 0 .052-.008872.107816-.021872.157816 0 0-1.5824 6.17176-1.75936 6.86872.551.459 5.45472 4.53128 5.45472 4.53128.147.123.229688.304064.229688.489064 0 .068-.010808.131872-.032816.196872-.08.248-.305624.420936-.565624.435936 0 0-6.32728.363248-7.05624.406248-.267.679-2.5844 6.6328-2.5844 6.6328-.094.244-.330624.403128-.590624.403128zm-31.0544-8.6096c-1.33904.061-3.6092-1.68592-5.6672-5.73592-.113-.222-.196064-.428128-.264064-.628128-2.162-.646-3.60088-.070688-3.69688-.029688-.215.09-.464688-.01-.554688-.225-.094-.216.004872-.462688.221872-.554688.102-.046 1.59896-.657752 3.83592-.118752-.001-.028-.006248-.059496-.006248-.087504 0-.629.265504-1.05784.612496-1.2828.97096-.633 3.10896-.09356 6.21096 3.07344-.201-.572-.380312-1.19784-.495312-1.84688-.00504-.028-.00624-.056816-.00624-.082816 0-.178.103312-.338688.270312-.404688.335-.137.527872.141376.696872.384376l.429688.642184c.373.56 1.21016 1.81968 1.77816 2.47968-.069-.363-.139064-.770816-.139064-1.15784 0-.524.12756-1.0036.55156-1.2516.355-.206.92328-.278752 2.15624.456248.104-.285.312816-.41956.432816-.47656.787-.365 2.27128.423688 3.82032 1.90472-.209-.469-.369936-.85888-.410936-1.02184-.01-.045-.014064-.089128-.014064-.128128 0-.197.118248-.338.256248-.4.34-.15.557128.147624.728128.390624l.467184.675c.387.572 1.29768 1.91272 1.82968 2.46872.157-.385.438752-.87328.94376-1.15624-.147-.332-.220312-.617816-.220312-.85784 0-.296.110816-.520872.332816-.671872.398-.27 1.0028-.121128 1.6328.221872-2.012-1.996-2.93664-3.98576-2.9656-4.86872-.00096-.016-.0016-.034-.0016-.05 0-.492.241624-.690064.390624-.764064.306-.153.678936-.057064 1.11096.285936 1.516 1.20296 2.61984 4.05824 3.1828 5.80624.756.616 1.6408 1.21608 2.65784 1.76408-.33-.579-.517184-1.12576-.517184-1.56872 0-.16.024312-.308496.070312-.437504.117-.31.366936-.507064.685936-.539064.699-.077 1.66472.655504 2.80472 2.06248-.097-.28-.193064-.552752-.289064-.81872-3.166-2.49504-4.58984-5.1608-4.77184-6.60784-.016-.118-.025-.228128-.025-.328128 0-.577.232872-.84304.446872-.96408.241-.137.64956-.203752 1.2516.256248.67.512 2.26704 3.01504 3.81408 7.13904 2.054 1.578 4.86848 3.08688 8.6128 4.12184.188.053.314064.222936.314064.410936 0 .036-.0072.074936-.017184.110936-.063.227-.297.358872-.525.296872-3.27-.906-5.85984-2.17328-7.8828-3.54528.241.716.481064 1.47272.714064 2.26872.011.04.015624.078752.015624.118752 0 .163-.09444.316936-.24844.385936-.193.087-.420816.019184-.532816-.157808-2.11-3.31296-3.30472-3.91592-3.56872-3.91096-.015.029-.025.069688-.025.129688 0 .378.322192 1.32112 1.3672 2.42816.074.08.117184.184624.117184.290624 0 .084-.028128.169184-.078128.242192-.116.163-.330064.227-.514064.15-1.332-.564-2.48016-1.23104-3.47816-1.93904.011.041.018872.071376.021872.084376.00696.036.015624.069128.015624.103128 0 .155-.089248.302-.231248.375-.009.00304-.013872.00328-.021872.00624.292.23.591816.48144.90784.77344.333.31.418752.592.418752.8 0 .092-.017504.16656-.037496.22656-.097.3-.374688.496192-.754688.542192-.93696.109-2.4216-.683624-3.7516-2.64064-.453.243-.630496.83368-.712496 1.10472l-.032816.109376c-.055.178-.217688.288496-.404688.287496-.287-.00296-.595128-.200752-1.07816-.768752.00704.013.012312.028064.020312.039064.028.059.040624.120816.040624.182816 0 .145-.074688.285064-.204688.364064-.188.113-.428816.064624-.557816-.109376-2.364-3.18304-4.43384-4.06728-4.75784-3.90624-.002.01-.009376.032496-.009376.087504 0 .036.00616.088.017184.15.528.378 1.15264.87208 1.89064 1.51408.685.594.84216 1.0752.84216 1.39216 0 .145-.034064.254-.064064.325-.14.328-.477936.50944-.88592.47344-.87696-.075-1.97296-1.1016-2.52496-3.19064-1.37-.93504-1.73904-.793064-1.78904-.764064-.186.107-.171376.693184.040624 1.74216.093.465.135248.677872.031248.87184-.102.19-.278936.302496-.485936.312496-.446.021-.9504-.44456-1.9984-1.92656.415.98704.82016 1.66496.82816 1.67504.042.069.062504.145312.062504.220312 0 .133-.063248.263872-.181248.346872-.18.129-.428872.094872-.571872-.078128-3.72704-4.55-6.26296-5.496-6.98592-5.02496-.155.102-.229688.298496-.229688.562496 0 .109.0177504.231504.0437496.362496 1.39496.497 3.0092 1.45112 4.7172 3.20312 1.00896 1.03 1.55 1.99624 1.55 2.73128 0 .165-.026248.318816-.081248.457808-.15.381-.494752.612936-.94376.635936zm-.039064-.84688c.158-.008.180752-.07.193752-.1.013-.038.02344-.088872.02344-.146872 0-.37-.322376-1.1316-1.30936-2.14064-1.32096-1.354-2.57096-2.19472-3.68592-2.70472 1.96096 3.772 3.96312 5.13016 4.77816 5.09216zm18.0936-.739064c-.022-.029-.046184-.062128-.092192-.103128-.974-.90304-1.83192-1.47696-2.51096-1.7 1.06304 1.37904 1.984 1.70496 2.27504 1.77504.155.036.260128.037128.328128.028128zm-9.4408-1.39688c-.022-.1-.129752-.344248-.543752-.706248-.309-.267-.593688-.506752-.85472-.718752.431.90496.92216 1.24192 1.10312 1.33592.139.075.237312.089064.295312.089064zm7.8328-.89688c-.82096-.726-1.56728-1.06152-1.83128-1.06248.00304.08.038128.264816.203128.607808.484-.018 1.02416.130688 1.62816.454688zm5.76096-2.33752c-1.29904-3.11696-2.51496-4.96024-2.96096-5.30624-.146-.109-.24756-.15744-.30156-.17344-.016.038-.029688.102064-.029688.214064 0 .195.04356.506688.20156.95472.389 1.11104 1.3636 2.69192 3.09064 4.31096zm-6.08904-.009376c-.577-1.484-1.39472-3.14816-2.37968-3.92816-.048-.039-.08844-.068184-.12344-.092192.044.613.794128 2.25928 2.50312 4.02032zm-2.92816-16.7c-1.42496 0-2.1156-.85744-2.1156-2.1984v-2.20784c0-1.86304.690624-2.6 2.1156-2.6.86704 0 1.5104.20356 2.05936.50156v3.27184h-2.09688v-.745312h1.24064v-2.01248c-.178-.13-.588128-.29844-1.20312-.29844-.81 0-1.23904.373312-1.23904 1.84528v2.27184c0 1.408.96904 1.45472 1.23904 1.45472.86704 0 1.19376-.428872 1.19376-1.22184h.89376c.057 1.40704-.633504 1.93904-2.08752 1.93904zm11.2144 0c-1.12896 0-1.97656-.63456-1.97656-1.82656 0-2.02304 3.01872-1.85272 3.01872-3.34376 0-.80096-.52156-1.09064-1.2016-1.09064-.549 0-1.12816.289128-1.12816 1.20312v.195312h-.84688c-.019-.643-.019936-2.16232 1.96408-2.14528 1.11 0 2.08904.459 2.08904 1.87504 0 2.132-3.01872 1.91904-3.01872 3.4 0 .727.521376.98752 1.0344.98752.81 0 1.04184-.484872 1.0328-1.22184h.89376c.058 1.37-.631936 1.9672-1.86096 1.9672zm-33.0504-.139064v-6.72656h3.52032v.745312h-2.66408v2.32816h2.42184v.745312h-2.42184v2.16096h2.60784v.746872h-3.46408zm4.59376 0v-6.72656h.764064v5.83128h.018752l2.65472-5.83128h1.17504v6.72656h-.764064v-5.75936h-.018752l-2.61872 5.75936h-1.21096zm5.8 0v-6.72656h3.52184v.745312h-2.66408v2.32816h2.42344v.745312h-2.42344v2.16096h2.60936v.746872h-3.4672zm4.55472 0v-6.72656h.85624v3.09216h1.00624c.29 0 .94904-.037816 1.01408-.85784.075-.894.019496-1.7704.262496-2.2344h.89376c-.131.417-.223808 1.47136-.232816 1.75936-.046 1.352-.32444 1.6124-1.0984 1.7344v.018752c.791.139 1.22816.743936 1.22816 1.53592 0 .83896-.417936 1.67816-1.61096 1.67816h-2.31872zm9.42 0 1.80784-4.16408v-2.56248h.85624v2.56248l1.8344 4.16408h-.8656l-1.35936-3.2516-1.31408 3.2516h-.95936zm10.9856 0v-.746872h1.77032v-5.97968h.85624v5.97968h1.77032v.746872h-4.39688zm9.7576 0v-6.72656h.85784v3.09216h1.00624c.289 0 .9496-.037816 1.0156-.85784.074-.894.017936-1.7704.260936-2.2344h.89376c-.13.417-.222248 1.47136-.231248 1.75936-.047 1.352-.327 1.6124-1.1 1.7344v.018752c.79.139 1.22816.743936 1.22816 1.53592 0 .83896-.418936 1.67816-1.61096 1.67816h-2.32032zm-3.93904-.0016-2.1328-6.72496h.8656l.503128 1.60312h2.6l.482816-1.60312h.96096l-2.18904 6.72496h-1.09064zm-25.3688-.745312h1.29528c.66 0 .90312-.53944.90312-1.02344 0-.588-.298064-1.11872-.91408-1.11872h-1.2844v2.14216zm30.1656 0h1.29528c.661 0 .90312-.53944.90312-1.02344 0-.588-.298496-1.11872-.91248-1.11872h-1.28592v2.14216zm-4.29528-.046872h.020312l1.07968-3.58592h-2.1516l1.0516 3.58592z"/>
  </g>
</svg>